<?xml version="1.0" encoding="UTF-8" standalone="no"?>
<!DOCTYPE svg PUBLIC "-//W3C//DTD SVG 1.1//EN" "http://www.w3.org/Graphics/SVG/1.1/DTD/svg11.dtd">
<svg width="100%" height="100%" viewBox="0 0 46 38" version="1.1" xmlns="http://www.w3.org/2000/svg" xmlns:xlink="http://www.w3.org/1999/xlink" xml:space="preserve" style="fill-rule:evenodd;clip-rule:evenodd;stroke-linejoin:round;stroke-miterlimit:1.41421;">
    <path d="M20.419,0.008C20.549,0.023 20.677,0.04 20.804,0.072C21.091,0.144 21.357,0.269 21.601,0.436L21.623,0.451C21.807,0.44 21.992,0.431 22.177,0.425C22.35,0.42 22.524,0.416 22.697,0.415C23.247,0.414 23.797,0.434 24.346,0.48C24.863,0.524 25.378,0.592 25.89,0.678L25.9,0.68C25.968,0.642 25.968,0.643 26.037,0.608C26.119,0.57 26.119,0.57 26.201,0.536C26.458,0.441 26.721,0.383 26.995,0.372L27.041,0.372C27.202,0.371 27.363,0.381 27.521,0.412C27.703,0.446 27.881,0.501 28.058,0.552C28.329,0.632 28.597,0.716 28.864,0.806C29.612,1.058 30.343,1.359 31.053,1.704C31.262,1.806 31.469,1.912 31.674,2.021C31.803,2.089 31.933,2.159 32.052,2.244C32.352,2.458 32.603,2.739 32.778,3.064C32.855,3.206 32.914,3.355 32.964,3.509L32.965,3.514C33.105,3.609 33.244,3.705 33.382,3.803C33.495,3.884 33.607,3.965 33.718,4.048C34.259,4.458 34.781,4.89 35.276,5.354C35.813,5.857 36.315,6.394 36.791,6.954L36.805,6.971C36.855,6.981 36.905,6.993 36.954,7.005C37.025,7.024 37.024,7.024 37.094,7.046C37.201,7.082 37.307,7.123 37.409,7.173C37.692,7.312 37.947,7.506 38.155,7.743C38.26,7.862 38.35,7.992 38.438,8.124C38.543,8.28 38.647,8.438 38.747,8.597C39.032,9.051 39.3,9.515 39.547,9.991C39.759,10.399 39.956,10.814 40.138,11.236C40.198,11.376 40.257,11.519 40.314,11.66C40.376,11.816 40.412,11.901 40.461,12.055C40.629,12.589 40.582,13.18 40.366,13.693C40.393,13.785 40.417,13.877 40.443,13.969C40.639,14.722 40.795,15.482 40.898,16.253C41.01,17.09 41.058,17.932 41.059,18.776L41.059,18.823C41.108,18.885 41.107,18.885 41.154,18.949L41.205,19.023C41.274,19.135 41.338,19.248 41.39,19.368C41.523,19.672 41.593,20.003 41.592,20.334C41.592,20.444 41.583,20.553 41.571,20.662C41.547,20.879 41.522,21.095 41.491,21.311C41.376,22.129 41.207,22.939 40.986,23.735C40.919,23.975 40.848,24.214 40.772,24.452C40.702,24.671 40.635,24.895 40.54,25.105C40.428,25.351 40.271,25.571 40.087,25.768L40.064,25.791L41.947,29.005C41.99,29.01 42.031,29.018 42.073,29.026C42.339,29.088 42.583,29.213 42.777,29.406C42.853,29.481 42.917,29.563 42.975,29.651C43.881,31.132 44.731,32.645 45.608,34.142C45.677,34.267 45.732,34.397 45.764,34.536C45.858,34.943 45.764,35.38 45.514,35.714C45.413,35.848 45.291,35.958 45.153,36.053C44.96,36.172 44.763,36.283 44.568,36.398C44.443,36.467 44.313,36.522 44.174,36.555C43.768,36.65 43.33,36.56 42.995,36.312C42.86,36.211 42.75,36.089 42.655,35.951C41.728,34.458 40.848,32.935 39.988,31.402C39.939,31.307 39.898,31.209 39.87,31.106C39.786,30.8 39.809,30.47 39.931,30.178L38.582,27.876C38.495,28.026 38.405,28.174 38.314,28.321C38.207,28.492 38.098,28.661 37.986,28.83C37.579,29.433 37.141,30.011 36.669,30.565L36.632,30.609C36.63,30.676 36.625,30.742 36.619,30.809C36.612,30.867 36.604,30.923 36.594,30.98C36.529,31.318 36.401,31.637 36.205,31.92C36.051,32.142 35.857,32.324 35.66,32.507C35.431,32.72 35.197,32.927 34.958,33.128C34.35,33.639 33.711,34.113 33.044,34.543C32.901,34.635 32.757,34.726 32.612,34.814C32.453,34.91 32.294,35.011 32.123,35.086C31.637,35.298 31.093,35.344 30.578,35.219C30.416,35.296 30.253,35.37 30.089,35.442C29.278,35.793 28.446,36.09 27.593,36.322C26.956,36.495 26.311,36.63 25.66,36.737L25.629,36.742C25.591,36.784 25.551,36.825 25.511,36.865C25.464,36.909 25.416,36.952 25.367,36.994C25.076,37.229 24.74,37.399 24.376,37.483C24.166,37.532 23.953,37.544 23.738,37.555C23.428,37.569 23.118,37.577 22.808,37.579C22.008,37.581 21.207,37.529 20.414,37.428C20.18,37.398 19.947,37.363 19.714,37.325C19.574,37.302 19.432,37.278 19.295,37.236C18.944,37.131 18.617,36.945 18.348,36.696C18.23,36.587 18.127,36.467 18.031,36.339L18.029,36.336C17.864,36.291 17.7,36.244 17.536,36.195C17.358,36.141 17.181,36.085 17.004,36.027C16.302,35.79 15.614,35.515 14.944,35.197C14.381,34.928 13.835,34.629 13.301,34.308L13.278,34.294C13.212,34.302 13.147,34.308 13.082,34.313C13.017,34.316 12.952,34.317 12.887,34.316C12.725,34.31 12.565,34.293 12.407,34.256C12.105,34.187 11.824,34.059 11.568,33.885C11.451,33.801 11.338,33.714 11.224,33.626C10.397,32.98 9.621,32.273 8.909,31.5C8.774,31.354 8.642,31.205 8.512,31.055C8.366,30.886 8.218,30.719 8.1,30.53C7.928,30.253 7.813,29.942 7.764,29.62C7.736,29.437 7.732,29.253 7.744,29.068L7.744,29.063C7.658,28.939 7.575,28.813 7.491,28.687C7.376,28.509 7.376,28.509 7.262,28.329L7.215,28.252L5.869,30.547C5.886,30.587 5.9,30.627 5.914,30.668C5.928,30.717 5.941,30.766 5.952,30.815C5.996,31.053 5.989,31.294 5.916,31.526C5.889,31.611 5.853,31.692 5.812,31.771C4.963,33.285 4.058,34.767 3.181,36.264C3.105,36.385 3.019,36.496 2.913,36.592C2.604,36.873 2.177,37.005 1.764,36.95C1.597,36.927 1.442,36.874 1.291,36.8C1.093,36.691 0.9,36.573 0.704,36.458C0.583,36.383 0.472,36.297 0.375,36.191C0.094,35.884 -0.042,35.458 0.011,35.044C0.033,34.877 0.086,34.722 0.159,34.571C1.009,33.032 1.908,31.521 2.825,30.021C2.883,29.933 2.947,29.85 3.023,29.776C3.242,29.559 3.523,29.427 3.826,29.378L3.853,29.375L5.949,25.798C5.86,25.583 5.86,25.584 5.773,25.368C5.66,25.074 5.553,24.778 5.451,24.48L5.434,24.43C5.371,24.389 5.372,24.389 5.311,24.346C5.241,24.293 5.241,24.293 5.173,24.238C5.083,24.159 4.997,24.077 4.918,23.987C4.713,23.753 4.554,23.479 4.453,23.185C4.413,23.069 4.384,22.95 4.357,22.83C4.319,22.657 4.302,22.581 4.268,22.411C4.174,21.946 4.097,21.478 4.039,21.007C3.963,20.395 3.917,19.78 3.901,19.164C3.895,18.896 3.885,18.625 3.905,18.357C3.946,17.795 4.211,17.264 4.602,16.865C4.617,16.712 4.635,16.56 4.653,16.407C4.731,15.813 4.831,15.224 4.963,14.64C5.175,13.704 5.464,12.788 5.818,11.896L5.839,11.844C5.823,11.79 5.808,11.735 5.794,11.679C5.781,11.62 5.77,11.561 5.76,11.501C5.74,11.36 5.728,11.22 5.731,11.078C5.739,10.714 5.833,10.362 5.994,10.037C6.083,9.864 6.175,9.693 6.269,9.522C6.741,8.678 7.271,7.869 7.865,7.105C8.018,6.908 8.175,6.715 8.335,6.524C8.442,6.397 8.549,6.27 8.672,6.157C8.953,5.901 9.295,5.713 9.661,5.613C9.802,5.574 9.945,5.551 10.09,5.536L10.105,5.535C10.23,5.415 10.357,5.296 10.485,5.178C10.625,5.052 10.767,4.927 10.91,4.804C11.475,4.323 12.065,3.873 12.684,3.462C13.199,3.12 13.731,2.807 14.276,2.516L14.297,2.505C14.327,2.436 14.327,2.437 14.359,2.369C14.4,2.291 14.4,2.292 14.444,2.215C14.613,1.944 14.822,1.706 15.08,1.516C15.199,1.428 15.326,1.351 15.459,1.287C15.577,1.23 15.698,1.183 15.819,1.135C16.145,1.007 16.473,0.886 16.805,0.774C17.535,0.53 18.28,0.33 19.035,0.176C19.203,0.142 19.372,0.11 19.542,0.08C19.723,0.049 19.903,0.015 20.087,0.004L20.134,0.003L20.23,0C20.293,0.003 20.356,0.005 20.419,0.008ZM30.683,34.261C30.731,34.277 30.779,34.291 30.829,34.303C30.877,34.313 30.925,34.321 30.973,34.328C31.236,34.357 31.499,34.321 31.742,34.215C31.8,34.19 31.856,34.159 31.91,34.128C32.083,34.023 32.256,33.918 32.427,33.81C33.424,33.171 34.356,32.44 35.213,31.623C35.255,31.582 35.296,31.54 35.334,31.496C35.507,31.29 35.623,31.043 35.665,30.776C35.681,30.67 35.685,30.564 35.68,30.457L35.684,30.366C35.691,30.337 35.695,30.307 35.705,30.278C35.732,30.201 35.75,30.187 35.796,30.122C35.923,29.977 36.047,29.831 36.169,29.683C36.533,29.239 36.877,28.779 37.196,28.301C37.497,27.852 37.775,27.387 38.034,26.912L38.092,26.804L38.15,26.695L38.2,26.618C38.257,26.56 38.268,26.54 38.34,26.501C38.503,26.41 38.711,26.425 38.859,26.539C38.924,26.589 38.932,26.61 38.98,26.676L40.886,29.929C40.899,29.956 40.914,29.983 40.924,30.011C40.965,30.125 40.96,30.252 40.911,30.363C40.885,30.419 40.845,30.467 40.817,30.522C40.805,30.548 40.795,30.575 40.787,30.602C40.758,30.716 40.767,30.83 40.817,30.936C41.608,32.481 42.534,33.955 43.449,35.429C43.476,35.468 43.506,35.504 43.543,35.534C43.686,35.651 43.88,35.67 44.048,35.598C44.25,35.499 44.44,35.377 44.632,35.258C44.782,35.154 44.87,34.979 44.846,34.795C44.839,34.74 44.822,34.689 44.797,34.639C43.958,33.12 43.124,31.593 42.164,30.147C42.087,30.04 41.972,29.968 41.84,29.949C41.798,29.943 41.756,29.944 41.713,29.947L41.624,29.947C41.595,29.941 41.565,29.938 41.536,29.93C41.451,29.904 41.373,29.854 41.314,29.787C41.294,29.764 41.279,29.739 41.262,29.714L39.043,25.928C39.01,25.857 38.996,25.841 38.984,25.763C38.96,25.617 39.007,25.465 39.11,25.358C39.151,25.316 39.173,25.304 39.216,25.273C39.249,25.248 39.281,25.222 39.313,25.195C39.344,25.167 39.373,25.139 39.403,25.109C39.508,24.996 39.597,24.871 39.665,24.732C39.691,24.68 39.71,24.624 39.732,24.57C39.801,24.366 39.8,24.367 39.867,24.162C40.064,23.535 40.233,22.901 40.365,22.257C40.479,21.696 40.563,21.13 40.627,20.56C40.634,20.494 40.64,20.428 40.642,20.361C40.645,20.089 40.576,19.821 40.437,19.587C40.379,19.49 40.309,19.403 40.232,19.32L40.178,19.249C40.143,19.178 40.129,19.161 40.114,19.082C40.109,19.053 40.109,19.023 40.107,18.993C40.109,18.773 40.109,18.773 40.109,18.554C40.097,17.68 40.031,16.81 39.893,15.947C39.777,15.215 39.609,14.495 39.404,13.783L39.387,13.695C39.387,13.605 39.387,13.605 39.404,13.517C39.44,13.429 39.483,13.346 39.517,13.258C39.615,12.988 39.639,12.699 39.574,12.418L39.566,12.388C39.542,12.298 39.54,12.299 39.51,12.21C39.431,12.011 39.431,12.011 39.35,11.813C39.18,11.41 39,11.013 38.804,10.623C38.437,9.896 38.021,9.195 37.561,8.523C37.529,8.479 37.497,8.435 37.462,8.393C37.305,8.211 37.108,8.067 36.883,7.979C36.788,7.942 36.69,7.916 36.589,7.898L36.55,7.892L36.502,7.887L36.413,7.868C36.385,7.856 36.356,7.847 36.329,7.833C36.258,7.794 36.247,7.775 36.19,7.718C36.063,7.566 36.064,7.566 35.936,7.415C35.475,6.884 34.988,6.377 34.469,5.902C33.788,5.279 33.057,4.715 32.288,4.205L32.218,4.148C32.167,4.087 32.148,4.074 32.116,4C32.091,3.944 32.089,3.919 32.077,3.866C32.067,3.826 32.055,3.786 32.042,3.746C32.028,3.706 32.013,3.667 31.997,3.629C31.902,3.419 31.767,3.233 31.589,3.086C31.514,3.024 31.435,2.975 31.351,2.926C31.194,2.84 31.034,2.758 30.874,2.676C30.126,2.301 29.354,1.973 28.56,1.706C28.306,1.62 28.05,1.54 27.792,1.464C27.645,1.421 27.497,1.377 27.346,1.345C27.319,1.341 27.319,1.341 27.291,1.337L27.233,1.329C27.142,1.323 27.142,1.321 27.051,1.322C26.843,1.325 26.637,1.374 26.449,1.464C26.381,1.497 26.317,1.536 26.254,1.577L26.174,1.619C26.145,1.627 26.117,1.639 26.088,1.645C26.009,1.66 25.988,1.653 25.909,1.646C25.728,1.613 25.547,1.584 25.365,1.556C24.834,1.478 24.301,1.422 23.766,1.392C23.089,1.354 22.412,1.358 21.736,1.396L21.619,1.403L21.508,1.411L21.417,1.409C21.339,1.392 21.316,1.393 21.245,1.353C21.194,1.325 21.178,1.308 21.139,1.277C21.104,1.247 21.066,1.221 21.028,1.194C20.979,1.163 20.929,1.134 20.878,1.107C20.737,1.038 20.589,0.989 20.434,0.966L20.403,0.963L20.344,0.956C20.254,0.952 20.254,0.95 20.163,0.952C20.115,0.954 20.068,0.958 20.02,0.964C19.861,0.988 19.703,1.016 19.545,1.045C18.675,1.21 17.816,1.429 16.979,1.718C16.775,1.789 16.572,1.862 16.371,1.94C16.214,2 16.057,2.06 15.904,2.128C15.857,2.15 15.811,2.174 15.766,2.2C15.544,2.334 15.358,2.521 15.233,2.75C15.188,2.831 15.154,2.915 15.123,3.001L15.086,3.082C15.04,3.146 15.032,3.167 14.97,3.216C14.946,3.235 14.92,3.249 14.895,3.265C14.72,3.356 14.72,3.355 14.547,3.448C13.919,3.793 13.311,4.169 12.728,4.585C11.985,5.116 11.289,5.706 10.637,6.343L10.566,6.4C10.495,6.438 10.478,6.453 10.398,6.469C10.324,6.484 10.246,6.477 10.172,6.483C10.128,6.487 10.084,6.493 10.041,6.5C9.825,6.542 9.623,6.624 9.444,6.753C9.296,6.859 9.18,6.995 9.063,7.135C8.91,7.317 8.76,7.501 8.615,7.688C7.949,8.545 7.365,9.462 6.863,10.424C6.834,10.481 6.806,10.538 6.782,10.598C6.685,10.851 6.656,11.124 6.704,11.391C6.723,11.492 6.753,11.588 6.79,11.683L6.815,11.771C6.822,11.85 6.829,11.871 6.813,11.951C6.807,11.981 6.795,12.009 6.787,12.038C6.714,12.213 6.644,12.39 6.576,12.567C6.244,13.454 5.98,14.365 5.795,15.294C5.674,15.903 5.589,16.518 5.53,17.136L5.513,17.225C5.502,17.253 5.494,17.282 5.48,17.309C5.444,17.379 5.391,17.431 5.332,17.481C5.295,17.515 5.26,17.55 5.226,17.587C5.035,17.802 4.907,18.062 4.863,18.347L4.859,18.377C4.837,18.565 4.845,18.757 4.847,18.946C4.851,19.206 4.86,19.465 4.875,19.725C4.933,20.722 5.078,21.712 5.299,22.687C5.312,22.742 5.326,22.796 5.342,22.85C5.428,23.107 5.58,23.337 5.787,23.513C5.871,23.584 5.962,23.642 6.058,23.695L6.132,23.745C6.188,23.8 6.207,23.812 6.245,23.881C6.26,23.908 6.269,23.936 6.281,23.963C6.351,24.178 6.351,24.177 6.424,24.391C6.575,24.814 6.739,25.23 6.917,25.643L6.944,25.727C6.948,25.757 6.954,25.786 6.955,25.815C6.957,25.875 6.948,25.934 6.928,25.99C6.918,26.018 6.903,26.044 6.89,26.071L4.538,30.084C4.521,30.108 4.506,30.134 4.486,30.156C4.407,30.247 4.295,30.304 4.176,30.316C4.11,30.323 4.043,30.311 3.976,30.316C3.943,30.321 3.91,30.328 3.877,30.338C3.773,30.374 3.687,30.44 3.626,30.532C2.724,32.008 1.839,33.495 1.003,35.009C0.982,35.052 0.966,35.095 0.957,35.142C0.925,35.324 1.004,35.503 1.148,35.614C1.333,35.742 1.533,35.848 1.73,35.957C1.894,36.037 2.09,36.028 2.239,35.918C2.284,35.885 2.32,35.845 2.351,35.799C3.267,34.324 4.192,32.851 4.983,31.306C5.04,31.185 5.046,31.048 4.997,30.923C4.981,30.883 4.959,30.846 4.934,30.811L4.89,30.732C4.88,30.704 4.868,30.676 4.861,30.647C4.84,30.559 4.846,30.466 4.876,30.381C4.886,30.352 4.901,30.326 4.914,30.299L6.805,27.072C6.852,27.007 6.86,26.986 6.924,26.936C7.096,26.803 7.343,26.806 7.513,26.942C7.576,26.993 7.584,27.014 7.629,27.08C7.705,27.215 7.782,27.349 7.86,27.483C8.102,27.887 8.357,28.282 8.627,28.668L8.672,28.746C8.697,28.822 8.709,28.841 8.712,28.921C8.715,28.982 8.707,29.006 8.7,29.059C8.694,29.101 8.691,29.143 8.688,29.184C8.687,29.227 8.687,29.268 8.688,29.31C8.701,29.585 8.784,29.849 8.939,30.077C9.024,30.203 9.131,30.319 9.23,30.434C9.395,30.625 9.565,30.811 9.737,30.995C10.282,31.576 10.867,32.119 11.485,32.621C11.627,32.736 11.77,32.848 11.915,32.959C12.013,33.035 12.11,33.112 12.217,33.173C12.406,33.282 12.619,33.347 12.836,33.363C12.954,33.372 13.071,33.364 13.188,33.346L13.227,33.339L13.273,33.329L13.364,33.319C13.394,33.321 13.425,33.321 13.455,33.326C13.536,33.34 13.553,33.355 13.625,33.391C13.74,33.464 13.847,33.528 13.964,33.598C14.587,33.963 15.228,34.295 15.89,34.584C16.718,34.944 17.573,35.234 18.446,35.463L18.531,35.494C18.599,35.535 18.62,35.541 18.675,35.601C18.716,35.645 18.726,35.668 18.755,35.713C18.777,35.748 18.801,35.782 18.826,35.815C18.852,35.848 18.878,35.879 18.906,35.91C19.062,36.077 19.249,36.209 19.463,36.29C19.554,36.325 19.645,36.346 19.74,36.366C19.915,36.395 20.091,36.423 20.268,36.449C20.86,36.532 21.455,36.589 22.053,36.613C22.672,36.639 23.291,36.63 23.909,36.593C23.965,36.589 24.02,36.584 24.075,36.575C24.347,36.527 24.6,36.407 24.806,36.223C24.878,36.158 24.942,36.086 25.001,36.009L25.063,35.943C25.128,35.896 25.142,35.879 25.218,35.852C25.247,35.842 25.277,35.837 25.306,35.83C25.51,35.799 25.51,35.799 25.713,35.766C26.4,35.644 27.079,35.49 27.747,35.29C28.635,35.025 29.496,34.686 30.331,34.285L30.415,34.254C30.505,34.239 30.505,34.239 30.595,34.242C30.624,34.248 30.654,34.255 30.683,34.261ZM22.969,1.811C23.749,1.823 24.527,1.881 25.299,1.996C26.759,2.215 28.19,2.627 29.543,3.219C31.492,4.073 33.274,5.299 34.771,6.81C36.356,8.409 37.618,10.323 38.457,12.413C39.145,14.129 39.545,15.956 39.641,17.803C39.71,19.133 39.623,20.472 39.38,21.782C39.113,23.226 38.653,24.634 38.019,25.959C37.15,27.778 35.95,29.436 34.5,30.835C33.072,32.213 31.402,33.337 29.587,34.138C27.45,35.082 25.121,35.567 22.786,35.567C20.45,35.567 18.121,35.082 15.984,34.138C14.17,33.337 12.499,32.213 11.072,30.835C9.654,29.467 8.475,27.852 7.611,26.081C6.94,24.707 6.457,23.241 6.183,21.737C5.945,20.436 5.861,19.107 5.931,17.786C6.031,15.901 6.448,14.036 7.165,12.29C8.006,10.24 9.256,8.363 10.818,6.792C12.313,5.288 14.09,4.067 16.033,3.217C17.397,2.621 18.839,2.207 20.312,1.991C21.071,1.879 21.835,1.823 22.602,1.811C22.724,1.81 22.847,1.81 22.969,1.811ZM22.734,2.76C22.043,2.766 21.353,2.809 20.668,2.9C19.289,3.083 17.936,3.449 16.653,3.986C15.414,4.503 14.243,5.179 13.173,5.991C11.386,7.346 9.891,9.078 8.811,11.044C8.083,12.371 7.547,13.801 7.224,15.28C6.936,16.595 6.818,17.947 6.869,19.293C6.936,21.079 7.303,22.85 7.958,24.513C8.696,26.389 9.795,28.117 11.174,29.587C12.597,31.102 14.315,32.336 16.206,33.197C18.209,34.108 20.397,34.59 22.596,34.616C24.804,34.641 27.01,34.209 29.041,33.34C30.865,32.559 32.539,31.433 33.954,30.041C35.272,28.743 36.364,27.218 37.162,25.549C37.851,24.11 38.32,22.568 38.549,20.989C38.739,19.674 38.765,18.337 38.627,17.016C38.439,15.219 37.943,13.458 37.163,11.828C36.223,9.864 34.876,8.099 33.233,6.669C32.112,5.694 30.857,4.88 29.512,4.248C28.137,3.601 26.661,3.161 25.158,2.936C24.55,2.845 23.938,2.792 23.324,2.769C23.127,2.764 22.931,2.76 22.734,2.76ZM22.967,4.116C23.653,4.129 24.335,4.181 25.013,4.284C26.386,4.494 27.727,4.901 28.985,5.489C30.429,6.163 31.76,7.075 32.913,8.175C34.108,9.313 35.11,10.653 35.863,12.122C36.493,13.352 36.948,14.672 37.208,16.029C37.513,17.619 37.553,19.26 37.329,20.863C37.119,22.358 36.677,23.818 36.021,25.178C35.253,26.772 34.194,28.223 32.913,29.444C31.587,30.709 30.026,31.723 28.33,32.417C26.571,33.136 24.677,33.504 22.777,33.504C20.878,33.504 18.983,33.136 17.225,32.417C15.529,31.723 13.967,30.709 12.641,29.444C11.36,28.223 10.302,26.772 9.533,25.178C8.878,23.818 8.435,22.358 8.226,20.863C8.001,19.26 8.041,17.619 8.346,16.029C8.607,14.672 9.061,13.352 9.692,12.122C10.418,10.705 11.375,9.409 12.514,8.297C13.697,7.142 15.072,6.188 16.57,5.489C17.828,4.901 19.169,4.494 20.541,4.284C21.219,4.181 21.902,4.129 22.588,4.116C22.777,4.115 22.777,4.115 22.967,4.116ZM22.6,5.066C21.958,5.078 21.319,5.126 20.685,5.224C19.402,5.42 18.148,5.8 16.972,6.349C15.571,7.004 14.284,7.897 13.178,8.977C12.112,10.017 11.216,11.23 10.537,12.555C9.948,13.705 9.523,14.939 9.279,16.208C8.994,17.696 8.956,19.231 9.166,20.731C9.362,22.129 9.776,23.494 10.389,24.765C11.108,26.257 12.098,27.614 13.297,28.756C14.537,29.939 15.998,30.888 17.584,31.537C19.229,32.21 21.001,32.554 22.777,32.554C24.554,32.554 26.326,32.21 27.97,31.537C29.557,30.888 31.017,29.939 32.258,28.756C33.456,27.614 34.447,26.257 35.166,24.765C35.779,23.494 36.192,22.129 36.388,20.731C36.598,19.231 36.561,17.696 36.275,16.208C36.032,14.939 35.607,13.705 35.017,12.555C34.313,11.181 33.375,9.928 32.258,8.862C31.179,7.833 29.933,6.981 28.583,6.349C27.407,5.8 26.153,5.42 24.87,5.224C24.235,5.126 23.596,5.078 22.955,5.066C22.777,5.065 22.777,5.065 22.6,5.066ZM27.965,22.652C28.088,22.657 28.211,22.666 28.334,22.685C28.642,22.732 28.943,22.829 29.22,22.972C29.785,23.261 30.248,23.736 30.524,24.307C30.649,24.567 30.736,24.845 30.779,25.13C30.824,25.424 30.824,25.725 30.779,26.019C30.736,26.304 30.649,26.583 30.524,26.842C30.371,27.159 30.161,27.448 29.906,27.691C29.651,27.934 29.352,28.131 29.027,28.268C28.668,28.42 28.279,28.498 27.889,28.498C27.499,28.498 27.111,28.42 26.751,28.268C26.427,28.131 26.128,27.934 25.873,27.691C25.618,27.448 25.407,27.159 25.255,26.842C25.129,26.583 25.043,26.304 24.999,26.019C24.954,25.725 24.954,25.424 24.999,25.13C25.043,24.845 25.129,24.567 25.255,24.307C25.53,23.735 25.993,23.261 26.558,22.972C26.836,22.829 27.136,22.732 27.445,22.685C27.567,22.666 27.69,22.657 27.814,22.652C27.89,22.651 27.889,22.651 27.965,22.652ZM27.838,23.602C27.543,23.613 27.255,23.682 26.992,23.817C26.448,24.096 26.054,24.624 25.947,25.225C25.908,25.44 25.906,25.66 25.939,25.876C25.968,26.068 26.026,26.255 26.11,26.43C26.214,26.644 26.356,26.839 26.528,27.003C26.701,27.168 26.902,27.301 27.122,27.393C27.364,27.496 27.626,27.548 27.889,27.548C28.152,27.548 28.415,27.496 28.657,27.393C28.876,27.301 29.078,27.168 29.251,27.003C29.423,26.839 29.565,26.644 29.668,26.43C29.753,26.255 29.811,26.068 29.84,25.876C29.873,25.66 29.87,25.44 29.832,25.225C29.727,24.64 29.351,24.123 28.829,23.839C28.57,23.698 28.285,23.623 27.991,23.604C27.94,23.602 27.889,23.601 27.838,23.602Z" style="fill:#ffffff;fill-opacity:0.677733;fill-rule:nonzero;"/>
</svg>
